<?xml version="1.0" encoding="UTF-8" standalone="no"?>
<!-- Created with Inkscape (http://www.inkscape.org/) -->

<svg
   width="449.32224mm"
   height="449.32224mm"
   viewBox="0 0 449.32223 449.32223"
   version="1.1"
   id="svg5"
   inkscape:version="1.2.2 (b0a8486541, 2022-12-01)"
   sodipodi:docname="logo equipo B.svg"
   inkscape:export-filename="logo equipo B blan y negro.png"
   inkscape:export-xdpi="96"
   inkscape:export-ydpi="96"
   xmlns:inkscape="http://www.inkscape.org/namespaces/inkscape"
   xmlns:sodipodi="http://sodipodi.sourceforge.net/DTD/sodipodi-0.dtd"
   xmlns="http://www.w3.org/2000/svg"
   xmlns:svg="http://www.w3.org/2000/svg">
  <sodipodi:namedview
     id="namedview7"
     pagecolor="#505050"
     bordercolor="#ffffff"
     borderopacity="1"
     inkscape:showpageshadow="0"
     inkscape:pageopacity="0"
     inkscape:pagecheckerboard="1"
     inkscape:deskcolor="#505050"
     inkscape:document-units="mm"
     showgrid="false"
     inkscape:zoom="0.26393991"
     inkscape:cx="526.63502"
     inkscape:cy="1022.9601"
     inkscape:window-width="1920"
     inkscape:window-height="1008"
     inkscape:window-x="0"
     inkscape:window-y="0"
     inkscape:window-maximized="1"
     inkscape:current-layer="layer1" />
  <defs
     id="defs2" />
  <g
     inkscape:label="Capa 1"
     inkscape:groupmode="layer"
     id="layer1"
     transform="translate(131.84031,-51.237045)">
    <circle
       style="fill:#ffffff;fill-opacity:1;stroke:none;stroke-width:6.35;stroke-linecap:round"
       id="path237"
       cx="92.820808"
       cy="275.89816"
       r="224.66112" />
    <g
       id="g1427"
       transform="translate(3.0475922,-0.43331909)">
      <g
         id="g4952"
         transform="matrix(3.0035512,0,0,2.9214915,-202.6134,-244.1945)">
        <g
           id="path405"
           transform="translate(5.7412913,27.198929)">
          <path
             style="color:#000000;fill:#242424;fill-opacity:0;stroke-width:11.9062;-inkscape-stroke:none"
             d="m 84.978498,152.44131 0.331229,-42.86384 -37.649807,54.53172 55.44601,-0.21378"
             id="path4838" />
          <path
             style="color:#000000;fill:#000000;-inkscape-stroke:none"
             d="m 81.075805,105.23084 -3.445434,4.99035 -3.445435,4.99036 -3.445434,4.99035 -3.445435,4.99036 -3.445435,4.99036 -3.445434,4.99035 -3.445435,4.99036 -3.445434,4.99036 -3.445435,4.99035 -3.445434,4.99036 -3.445435,4.99036 c -4.621081,6.85947 0.223835,9.80551 1.4646,9.94851 l 4.177735,-0.0161 4.177734,-0.0161 4.177735,-0.0161 4.177735,-0.0161 4.177734,-0.0161 4.177735,-0.0161 4.177735,-0.0161 4.177734,-0.0161 4.177735,-0.0161 4.177734,-0.0161 4.177735,-0.0161 4.177735,-0.0161 4.177734,-0.0161 4.177735,-0.0161 -0.0469,-11.90625 -44.046874,0.16992 20.171875,-29.2168 -0.18164,23.5 11.90625,0.0937 0.06006,-7.77856 0.06006,-7.77856 0.06006,-7.77855 0.06006,-7.77856 0.06006,-7.77856 0.06006,-7.77856 c -0.03298,-6.293571 -4.633389,-8.672345 -10.216176,-0.58625 z"
             id="path4840"
             sodipodi:nodetypes="ccccccccccccccccccccccccccccccccccccccc" />
        </g>
        <path
           style="color:#000000;fill:#000000;-inkscape-stroke:none"
           d="m 101.25692,167.52901 0.15039,11.90429 c 3.74053,-0.0475 9.91142,0.14844 11.98632,0.14844 9.34737,0 16.79688,7.45146 16.79688,16.79883 0,9.34737 -7.44951,16.79688 -16.79688,16.79688 -4.67367,0 -8.83052,-1.8735 -11.87695,-4.91993 -1.52321,-1.52321 -2.755406,-3.33664 -3.603514,-5.34179 -0.424057,-1.00259 -0.751287,-2.05319 -0.974609,-3.14453 l -11.666016,2.38671 c 0.382787,1.87064 0.948611,3.67726 1.675781,5.39649 1.454342,3.43846 3.554652,6.52731 6.148438,9.12109 5.187571,5.18757 12.4059,8.40821 20.29687,8.40821 15.78195,0 28.70313,-12.92118 28.70313,-28.70313 0,-15.78195 -12.92118,-28.70508 -28.70313,-28.70508 -1.06625,0 -7.83989,-0.20101 -12.13671,-0.14648 z"
           id="path2721" />
      </g>
      <circle
         style="fill:none;fill-opacity:1;stroke:#000000;stroke-width:5.66678;stroke-linecap:round;stroke-dasharray:none;stroke-opacity:1"
         id="path4963"
         cx="89.773216"
         cy="276.33148"
         r="204.29486" />
    </g>
  </g>
</svg>
